<?xml version="1.0" encoding="utf-8"?>
<!-- Generator: Adobe Illustrator 16.0.0, SVG Export Plug-In . SVG Version: 6.00 Build 0)  -->
<!DOCTYPE svg PUBLIC "-//W3C//DTD SVG 1.1//EN" "http://www.w3.org/Graphics/SVG/1.1/DTD/svg11.dtd">
<svg version="1.1" id="Layer_1" xmlns="http://www.w3.org/2000/svg" xmlns:xlink="http://www.w3.org/1999/xlink" x="0px" y="0px"
	 width="134px" height="65px" viewBox="0 0 134 65" enable-background="new 0 0 134 65" xml:space="preserve">
<g>
	<g>
		<path fill="#E9194D" d="M23.253,21.858c0.083,2.813,0.125,4.221,0.208,7.035c4.034-0.119,6.051-0.172,10.085-0.263
			c-0.063-2.814-0.095-4.221-0.158-7.035c1.095-0.024,1.642-0.036,2.736-0.059c0.137,6.726,0.207,10.089,0.345,16.815
			c-1.082,0.022-1.623,0.034-2.705,0.059c-0.07-3.153-0.105-4.732-0.176-7.885c-4.029,0.09-6.043,0.143-10.072,0.261
			c0.093,3.153,0.139,4.731,0.232,7.884c-1.069,0.032-1.603,0.047-2.672,0.081c-0.21-6.724-0.317-10.086-0.527-16.81
			C21.631,21.908,22.171,21.891,23.253,21.858z"/>
		<path fill="#E9194D" d="M47.717,38.167c-0.094-0.608-0.141-0.912-0.234-1.52c-0.037,0-0.055,0-0.091,0
			c-0.818,0.959-2.406,1.829-4.525,1.863c-3.011,0.048-4.579-1.642-4.613-3.389c-0.056-2.918,3.126-4.584,8.904-4.634
			c-0.001-0.1-0.001-0.148-0.003-0.248c-0.013-0.999-0.377-2.794-3.442-2.748c-1.393,0.021-2.843,0.395-3.886,0.963
			c-0.258-0.574-0.386-0.861-0.645-1.436c1.227-0.671,3.018-1.126,4.909-1.155c4.588-0.069,5.73,2.446,5.757,4.866
			c0.02,1.807,0.03,2.709,0.049,4.516c0.011,1.048,0.084,2.07,0.277,2.892C49.191,38.148,48.7,38.154,47.717,38.167z M47.238,32.007
			c-2.963-0.012-6.32,0.472-6.28,2.816c0.024,1.422,1.204,2.075,2.588,2.054c1.938-0.03,3.161-1.047,3.574-2.074
			c0.09-0.225,0.147-0.474,0.145-0.699C47.254,33.267,47.249,32.846,47.238,32.007z"/>
		<path fill="#E9194D" d="M52.677,29.304c-0.011-1.248-0.052-2.27-0.153-3.267c0.967-0.009,1.451-0.012,2.417-0.019
			c0.068,0.798,0.102,1.196,0.17,1.994c0.024,0,0.038,0,0.062,0c0.734-1.153,2.464-2.289,4.943-2.298
			c2.077-0.008,5.298,0.99,5.298,5.132c0,2.884,0,4.327,0,7.211c-1.082,0-1.623,0-2.704,0.001c-0.005-2.785-0.007-4.177-0.013-6.962
			c-0.004-1.946-0.904-3.568-3.473-3.557c-1.795,0.008-3.16,1.09-3.637,2.265c-0.11,0.27-0.181,0.65-0.179,1.025
			c0.021,2.904,0.032,4.356,0.052,7.26c-1.082,0.007-1.623,0.012-2.705,0.021C52.725,34.589,52.709,32.828,52.677,29.304z"/>
		<path fill="#E9194D" d="M68.291,29.251c0.002-1.248-0.027-2.271-0.118-3.27c0.967,0.002,1.45,0.004,2.417,0.007
			c0.059,0.799,0.088,1.198,0.147,1.997c0.024,0,0.039,0,0.063,0c0.747-1.145,2.487-2.261,4.966-2.243
			c2.077,0.015,5.289,1.047,5.243,5.188c-0.032,2.884-0.047,4.327-0.08,7.211c-1.082-0.012-1.622-0.018-2.704-0.027
			c0.026-2.785,0.039-4.176,0.064-6.96c0.018-1.946-0.864-3.579-3.433-3.596c-1.795-0.012-3.17,1.056-3.661,2.226
			c-0.113,0.269-0.189,0.648-0.191,1.022c-0.012,2.904-0.017,4.357-0.029,7.261c-1.082-0.004-1.622-0.005-2.703-0.008
			C68.28,34.536,68.284,32.774,68.291,29.251z"/>
		<path fill="#E9194D" d="M92.023,38.307c-0.074-0.61-0.111-0.916-0.186-1.526c-0.037,0-0.055-0.001-0.092-0.002
			c-0.849,0.933-2.461,1.752-4.581,1.72c-3.011-0.046-4.526-1.785-4.505-3.532c0.036-2.919,3.271-4.484,9.047-4.352
			c0.002-0.1,0.002-0.15,0.004-0.25c0.019-0.999-0.29-2.803-3.354-2.853c-1.393-0.022-2.853,0.306-3.913,0.841
			c-0.24-0.582-0.359-0.874-0.6-1.456c1.247-0.632,3.05-1.032,4.941-1c4.588,0.075,5.652,2.624,5.603,5.044
			c-0.037,1.806-0.055,2.71-0.092,4.517c-0.021,1.048,0.017,2.07,0.185,2.897C93.497,38.334,93.006,38.325,92.023,38.307z
			 M91.739,32.137c-2.961-0.105-6.333,0.271-6.366,2.616c-0.02,1.422,1.14,2.112,2.524,2.134c1.938,0.031,3.189-0.947,3.635-1.959
			c0.098-0.222,0.164-0.471,0.168-0.695C91.716,33.394,91.724,32.976,91.739,32.137z"/>
		<path fill="#E9194D" d="M97.461,20.699c1.095,0.024,1.643,0.037,2.738,0.064c-0.073,3.014-0.11,4.519-0.184,7.533
			c0.024,0,0.036,0.002,0.06,0.003c0.448-0.613,1.154-1.142,1.992-1.498c0.812-0.345,1.781-0.578,2.804-0.549
			c2.015,0.056,5.206,1.153,5.075,5.318c-0.09,2.873-0.135,4.31-0.226,7.183c-1.081-0.034-1.623-0.05-2.704-0.082
			c0.082-2.773,0.124-4.162,0.206-6.935c0.058-1.945-0.792-3.62-3.36-3.689c-1.765-0.048-3.158,0.987-3.707,2.101
			c-0.143,0.289-0.2,0.621-0.21,1.044c-0.071,2.914-0.105,4.371-0.177,7.285c-1.082-0.026-1.623-0.039-2.704-0.063
			C97.223,31.328,97.303,27.785,97.461,20.699z"/>
	</g>
</g>
<path fill="none" stroke="#E9194D" stroke-width="1.8" stroke-linejoin="round" stroke-miterlimit="10" d="M117.611,45.671
	c1.106,0.042,2.181,0.086,3.222,0.134"/>
<path fill="none" stroke="#E9194D" stroke-width="1.8" stroke-linejoin="round" stroke-miterlimit="10" d="M31.193,45.805
	c0,0,52.959-1.242,84.39-0.205"/>
</svg>
