<?xml version="1.0" encoding="utf-8"?>
<!-- Generator: Adobe Illustrator 16.0.0, SVG Export Plug-In . SVG Version: 6.00 Build 0)  -->
<!DOCTYPE svg PUBLIC "-//W3C//DTD SVG 1.1//EN" "http://www.w3.org/Graphics/SVG/1.1/DTD/svg11.dtd">
<svg version="1.1" id="Layer_1" xmlns="http://www.w3.org/2000/svg" xmlns:xlink="http://www.w3.org/1999/xlink" x="0px" y="0px"
	 width="134px" height="65px" viewBox="0 0 134 65" enable-background="new 0 0 134 65" xml:space="preserve">
<g id="XMLID_1_">
	<g>
		<path fill="#52B36E" d="M87.5,32.5H93C93,47.62,80.62,60,65.5,60S38,47.62,38,32.5S50.38,5,65.5,5c3.71,0,7.15,0.69,10.31,2.06
			l-4.26,4.27c-1.93-0.55-3.99-0.83-6.05-0.83c-12.1,0-22,9.9-22,22s9.9,22,22,22S87.5,44.6,87.5,32.5z"/>
		<polygon fill="#52B36E" points="90.25,16 62.75,43.5 50.38,31.12 54.22,27.28 62.75,35.66 86.4,12.15 		"/>
	</g>
	<g>
	</g>
</g>
</svg>
